# Tiled2Unity generated file. Do not modify by hand.
# Wavefront file for 'map2_final_mesh_0004.obj'

# Vertices (Count = 48)
v -24 -26 0
v -26 -26 0
v -26 -24 0
v -24 -24 0
v -26 -26 0
v -28 -26 0
v -28 -24 0
v -26 -24 0
v -28 -26 0
v -30 -26 0
v -30 -24 0
v -28 -24 0
v -24 -28 0
v -26 -28 0
v -26 -26 0
v -24 -26 0
v -26 -28 0
v -28 -28 0
v -28 -26 0
v -26 -26 0
v -28 -28 0
v -30 -28 0
v -30 -26 0
v -28 -26 0
v -24 -30 0
v -26 -30 0
v -26 -28 0
v -24 -28 0
v -26 -30 0
v -28 -30 0
v -28 -28 0
v -26 -28 0
v -28 -30 0
v -30 -30 0
v -30 -28 0
v -28 -28 0
v -24 -32 0
v -26 -32 0
v -26 -30 0
v -24 -30 0
v -26 -32 0
v -28 -32 0
v -28 -30 0
v -26 -30 0
v -28 -32 0
v -30 -32 0
v -30 -30 0
v -28 -30 0

# Texture cooridinates (Count = 16)
vt 0.15625 0.4375
vt 0.1875 0.4375
vt 0.1875 0.46875
vt 0.15625 0.46875
vt 0.21875 0.4375
vt 0.21875 0.46875
vt 0.25 0.4375
vt 0.25 0.46875
vt 0.15625 0.40625
vt 0.1875 0.40625
vt 0.21875 0.40625
vt 0.25 0.40625
vt 0.15625 0.375
vt 0.1875 0.375
vt 0.21875 0.375
vt 0.25 0.375

# Normal
vn 0 0 -1

# Mesh description
g map2_final_mesh_0004

# Faces
f 1/1/1 2/2/1 3/3/1 4/4/1
f 5/2/1 6/5/1 7/6/1 8/3/1
f 9/5/1 10/7/1 11/8/1 12/6/1
f 13/9/1 14/10/1 15/2/1 16/1/1
f 17/10/1 18/11/1 19/5/1 20/2/1
f 21/11/1 22/12/1 23/7/1 24/5/1
f 25/9/1 26/10/1 27/2/1 28/1/1
f 29/10/1 30/11/1 31/5/1 32/2/1
f 33/11/1 34/12/1 35/7/1 36/5/1
f 37/13/1 38/14/1 39/10/1 40/9/1
f 41/14/1 42/15/1 43/11/1 44/10/1
f 45/15/1 46/16/1 47/12/1 48/11/1

