# Tiled2Unity generated file. Do not modify by hand.
# Wavefront file for 'map2_final_mesh_0010.obj'

# Vertices (Count = 224)
v -24 -6 0
v -26 -6 0
v -26 -4 0
v -24 -4 0
v -26 -6 0
v -28 -6 0
v -28 -4 0
v -26 -4 0
v -24 -8 0
v -26 -8 0
v -26 -6 0
v -24 -6 0
v -26 -8 0
v -28 -8 0
v -28 -6 0
v -26 -6 0
v -28 -8 0
v -30 -8 0
v -30 -6 0
v -28 -6 0
v -30 -8 0
v -32 -8 0
v -32 -6 0
v -30 -6 0
v -32 -8 0
v -34 -8 0
v -34 -6 0
v -32 -6 0
v -34 -8 0
v -36 -8 0
v -36 -6 0
v -34 -6 0
v -36 -8 0
v -38 -8 0
v -38 -6 0
v -36 -6 0
v -24 -10 0
v -26 -10 0
v -26 -8 0
v -24 -8 0
v -26 -10 0
v -28 -10 0
v -28 -8 0
v -26 -8 0
v -28 -10 0
v -30 -10 0
v -30 -8 0
v -28 -8 0
v -30 -10 0
v -32 -10 0
v -32 -8 0
v -30 -8 0
v -32 -10 0
v -34 -10 0
v -34 -8 0
v -32 -8 0
v -34 -10 0
v -36 -10 0
v -36 -8 0
v -34 -8 0
v -36 -10 0
v -38 -10 0
v -38 -8 0
v -36 -8 0
v -24 -12 0
v -26 -12 0
v -26 -10 0
v -24 -10 0
v -26 -12 0
v -28 -12 0
v -28 -10 0
v -26 -10 0
v -28 -12 0
v -30 -12 0
v -30 -10 0
v -28 -10 0
v -30 -12 0
v -32 -12 0
v -32 -10 0
v -30 -10 0
v -32 -12 0
v -34 -12 0
v -34 -10 0
v -32 -10 0
v -34 -12 0
v -36 -12 0
v -36 -10 0
v -34 -10 0
v -36 -12 0
v -38 -12 0
v -38 -10 0
v -36 -10 0
v -42 -12 0
v -44 -12 0
v -44 -10 0
v -42 -10 0
v -44 -12 0
v -46 -12 0
v -46 -10 0
v -44 -10 0
v -46 -12 0
v -48 -12 0
v -48 -10 0
v -46 -10 0
v -48 -12 0
v -50 -12 0
v -50 -10 0
v -48 -10 0
v -24 -14 0
v -26 -14 0
v -26 -12 0
v -24 -12 0
v -26 -14 0
v -28 -14 0
v -28 -12 0
v -26 -12 0
v -28 -14 0
v -30 -14 0
v -30 -12 0
v -28 -12 0
v -30 -14 0
v -32 -14 0
v -32 -12 0
v -30 -12 0
v -32 -14 0
v -34 -14 0
v -34 -12 0
v -32 -12 0
v -34 -14 0
v -36 -14 0
v -36 -12 0
v -34 -12 0
v -36 -14 0
v -38 -14 0
v -38 -12 0
v -36 -12 0
v -42 -14 0
v -44 -14 0
v -44 -12 0
v -42 -12 0
v -44 -14 0
v -46 -14 0
v -46 -12 0
v -44 -12 0
v -46 -14 0
v -48 -14 0
v -48 -12 0
v -46 -12 0
v -48 -14 0
v -50 -14 0
v -50 -12 0
v -48 -12 0
v -26 -16 0
v -28 -16 0
v -28 -14 0
v -26 -14 0
v -28 -16 0
v -30 -16 0
v -30 -14 0
v -28 -14 0
v -30 -16 0
v -32 -16 0
v -32 -14 0
v -30 -14 0
v -32 -16 0
v -34 -16 0
v -34 -14 0
v -32 -14 0
v -34 -16 0
v -36 -16 0
v -36 -14 0
v -34 -14 0
v -36 -16 0
v -38 -16 0
v -38 -14 0
v -36 -14 0
v -42 -16 0
v -44 -16 0
v -44 -14 0
v -42 -14 0
v -44 -16 0
v -46 -16 0
v -46 -14 0
v -44 -14 0
v -46 -16 0
v -48 -16 0
v -48 -14 0
v -46 -14 0
v -48 -16 0
v -50 -16 0
v -50 -14 0
v -48 -14 0
v -42 -18 0
v -44 -18 0
v -44 -16 0
v -42 -16 0
v -44 -18 0
v -46 -18 0
v -46 -16 0
v -44 -16 0
v -46 -18 0
v -48 -18 0
v -48 -16 0
v -46 -16 0
v -48 -18 0
v -50 -18 0
v -50 -16 0
v -48 -16 0
v -42 -20 0
v -44 -20 0
v -44 -18 0
v -42 -18 0
v -44 -20 0
v -46 -20 0
v -46 -18 0
v -44 -18 0
v -46 -20 0
v -48 -20 0
v -48 -18 0
v -46 -18 0
v -48 -20 0
v -50 -20 0
v -50 -18 0
v -48 -18 0

# Texture cooridinates (Count = 18)
vt 0.9375 0.96875
vt 0.96875 0.96875
vt 0.96875 1
vt 0.9375 1
vt 1 0.96875
vt 1 1
vt 0.9375 0.9375
vt 0.96875 0.9375
vt 0.9375 0.90625
vt 0.96875 0.90625
vt 1 0.9375
vt 0.9375 0.875
vt 0.96875 0.875
vt 1 0.90625
vt 0.9375 0.84375
vt 0.96875 0.84375
vt 1 0.875
vt 1 0.84375

# Normal
vn 0 0 -1

# Mesh description
g map2_final_mesh_0010

# Faces
f 1/1/1 2/2/1 3/3/1 4/4/1
f 5/2/1 6/5/1 7/6/1 8/3/1
f 9/7/1 10/8/1 11/2/1 12/1/1
f 13/1/1 14/2/1 15/3/1 16/4/1
f 17/2/1 18/5/1 19/6/1 20/3/1
f 21/1/1 22/2/1 23/3/1 24/4/1
f 25/2/1 26/5/1 27/6/1 28/3/1
f 29/1/1 30/2/1 31/3/1 32/4/1
f 33/2/1 34/5/1 35/6/1 36/3/1
f 37/9/1 38/10/1 39/8/1 40/7/1
f 41/7/1 42/8/1 43/2/1 44/1/1
f 45/8/1 46/11/1 47/5/1 48/2/1
f 49/7/1 50/8/1 51/2/1 52/1/1
f 53/8/1 54/11/1 55/5/1 56/2/1
f 57/7/1 58/8/1 59/2/1 60/1/1
f 61/8/1 62/11/1 63/5/1 64/2/1
f 65/12/1 66/13/1 67/10/1 68/9/1
f 69/9/1 70/10/1 71/8/1 72/7/1
f 73/10/1 74/14/1 75/11/1 76/8/1
f 77/9/1 78/10/1 79/8/1 80/7/1
f 81/10/1 82/14/1 83/11/1 84/8/1
f 85/9/1 86/10/1 87/8/1 88/7/1
f 89/10/1 90/14/1 91/11/1 92/8/1
f 93/1/1 94/2/1 95/3/1 96/4/1
f 97/2/1 98/5/1 99/6/1 100/3/1
f 101/1/1 102/2/1 103/3/1 104/4/1
f 105/2/1 106/5/1 107/6/1 108/3/1
f 109/15/1 110/16/1 111/13/1 112/12/1
f 113/12/1 114/13/1 115/10/1 116/9/1
f 117/13/1 118/17/1 119/14/1 120/10/1
f 121/12/1 122/13/1 123/10/1 124/9/1
f 125/13/1 126/17/1 127/14/1 128/10/1
f 129/12/1 130/13/1 131/10/1 132/9/1
f 133/13/1 134/17/1 135/14/1 136/10/1
f 137/7/1 138/8/1 139/2/1 140/1/1
f 141/8/1 142/11/1 143/5/1 144/2/1
f 145/7/1 146/8/1 147/2/1 148/1/1
f 149/8/1 150/11/1 151/5/1 152/2/1
f 153/15/1 154/16/1 155/13/1 156/12/1
f 157/16/1 158/18/1 159/17/1 160/13/1
f 161/15/1 162/16/1 163/13/1 164/12/1
f 165/16/1 166/18/1 167/17/1 168/13/1
f 169/15/1 170/16/1 171/13/1 172/12/1
f 173/16/1 174/18/1 175/17/1 176/13/1
f 177/9/1 178/10/1 179/8/1 180/7/1
f 181/10/1 182/14/1 183/11/1 184/8/1
f 185/9/1 186/10/1 187/8/1 188/7/1
f 189/10/1 190/14/1 191/11/1 192/8/1
f 193/12/1 194/13/1 195/10/1 196/9/1
f 197/13/1 198/17/1 199/14/1 200/10/1
f 201/12/1 202/13/1 203/10/1 204/9/1
f 205/13/1 206/17/1 207/14/1 208/10/1
f 209/15/1 210/16/1 211/13/1 212/12/1
f 213/16/1 214/18/1 215/17/1 216/13/1
f 217/15/1 218/16/1 219/13/1 220/12/1
f 221/16/1 222/18/1 223/17/1 224/13/1

