# Tiled2Unity generated file. Do not modify by hand.
# Wavefront file for 'map2_final_mesh_0007.obj'

# Vertices (Count = 372)
v -28 -2 0
v -30 -2 0
v -30 0 0
v -28 0 0
v -30 -2 0
v -32 -2 0
v -32 0 0
v -30 0 0
v -28 -4 0
v -30 -4 0
v -30 -2 0
v -28 -2 0
v -30 -4 0
v -32 -4 0
v -32 -2 0
v -30 -2 0
v -2 -6 0
v -4 -6 0
v -4 -4 0
v -2 -4 0
v -20 -6 0
v -22 -6 0
v -22 -4 0
v -20 -4 0
v -28 -6 0
v -30 -6 0
v -30 -4 0
v -28 -4 0
v -30 -6 0
v -32 -6 0
v -32 -4 0
v -30 -4 0
v -42 -6 0
v -44 -6 0
v -44 -4 0
v -42 -4 0
v -44 -6 0
v -46 -6 0
v -46 -4 0
v -44 -4 0
v -2 -8 0
v -4 -8 0
v -4 -6 0
v -2 -6 0
v -4 -8 0
v -6 -8 0
v -6 -6 0
v -4 -6 0
v -6 -8 0
v -8 -8 0
v -8 -6 0
v -6 -6 0
v -8 -8 0
v -10 -8 0
v -10 -6 0
v -8 -6 0
v -10 -8 0
v -12 -8 0
v -12 -6 0
v -10 -6 0
v -12 -8 0
v -14 -8 0
v -14 -6 0
v -12 -6 0
v -14 -8 0
v -16 -8 0
v -16 -6 0
v -14 -6 0
v -16 -8 0
v -18 -8 0
v -18 -6 0
v -16 -6 0
v -20 -8 0
v -22 -8 0
v -22 -6 0
v -20 -6 0
v -28 -8 0
v -30 -8 0
v -30 -6 0
v -28 -6 0
v -42 -8 0
v -44 -8 0
v -44 -6 0
v -42 -6 0
v -44 -8 0
v -46 -8 0
v -46 -6 0
v -44 -6 0
v -46 -8 0
v -48 -8 0
v -48 -6 0
v -46 -6 0
v -48 -8 0
v -50 -8 0
v -50 -6 0
v -48 -6 0
v -2 -10 0
v -4 -10 0
v -4 -8 0
v -2 -8 0
v -4 -10 0
v -6 -10 0
v -6 -8 0
v -4 -8 0
v -6 -10 0
v -8 -10 0
v -8 -8 0
v -6 -8 0
v -8 -10 0
v -10 -10 0
v -10 -8 0
v -8 -8 0
v -14 -10 0
v -16 -10 0
v -16 -8 0
v -14 -8 0
v -16 -10 0
v -18 -10 0
v -18 -8 0
v -16 -8 0
v -28 -10 0
v -30 -10 0
v -30 -8 0
v -28 -8 0
v -42 -10 0
v -44 -10 0
v -44 -8 0
v -42 -8 0
v -44 -10 0
v -46 -10 0
v -46 -8 0
v -44 -8 0
v -46 -10 0
v -48 -10 0
v -48 -8 0
v -46 -8 0
v -48 -10 0
v -50 -10 0
v -50 -8 0
v -48 -8 0
v -2 -12 0
v -4 -12 0
v -4 -10 0
v -2 -10 0
v -4 -12 0
v -6 -12 0
v -6 -10 0
v -4 -10 0
v -6 -12 0
v -8 -12 0
v -8 -10 0
v -6 -10 0
v -8 -12 0
v -10 -12 0
v -10 -10 0
v -8 -10 0
v -10 -12 0
v -12 -12 0
v -12 -10 0
v -10 -10 0
v -12 -12 0
v -14 -12 0
v -14 -10 0
v -12 -10 0
v -14 -12 0
v -16 -12 0
v -16 -10 0
v -14 -10 0
v -16 -12 0
v -18 -12 0
v -18 -10 0
v -16 -10 0
v -42 -12 0
v -44 -12 0
v -44 -10 0
v -42 -10 0
v -44 -12 0
v -46 -12 0
v -46 -10 0
v -44 -10 0
v -46 -12 0
v -48 -12 0
v -48 -10 0
v -46 -10 0
v -48 -12 0
v -50 -12 0
v -50 -10 0
v -48 -10 0
v -42 -14 0
v -44 -14 0
v -44 -12 0
v -42 -12 0
v -44 -14 0
v -46 -14 0
v -46 -12 0
v -44 -12 0
v -46 -14 0
v -48 -14 0
v -48 -12 0
v -46 -12 0
v -48 -14 0
v -50 -14 0
v -50 -12 0
v -48 -12 0
v -46 -16 0
v -48 -16 0
v -48 -14 0
v -46 -14 0
v -48 -16 0
v -50 -16 0
v -50 -14 0
v -48 -14 0
v -40 -26 0
v -42 -26 0
v -42 -24 0
v -40 -24 0
v -42 -26 0
v -44 -26 0
v -44 -24 0
v -42 -24 0
v -44 -26 0
v -46 -26 0
v -46 -24 0
v -44 -24 0
v -40 -28 0
v -42 -28 0
v -42 -26 0
v -40 -26 0
v -42 -28 0
v -44 -28 0
v -44 -26 0
v -42 -26 0
v -44 -28 0
v -46 -28 0
v -46 -26 0
v -44 -26 0
v -40 -30 0
v -42 -30 0
v -42 -28 0
v -40 -28 0
v -42 -30 0
v -44 -30 0
v -44 -28 0
v -42 -28 0
v -44 -30 0
v -46 -30 0
v -46 -28 0
v -44 -28 0
v -40 -32 0
v -42 -32 0
v -42 -30 0
v -40 -30 0
v -42 -32 0
v -44 -32 0
v -44 -30 0
v -42 -30 0
v -44 -32 0
v -46 -32 0
v -46 -30 0
v -44 -30 0
v -46 -32 0
v -48 -32 0
v -48 -30 0
v -46 -30 0
v -48 -32 0
v -50 -32 0
v -50 -30 0
v -48 -30 0
v -46 -34 0
v -48 -34 0
v -48 -32 0
v -46 -32 0
v -48 -34 0
v -50 -34 0
v -50 -32 0
v -48 -32 0
v -46 -36 0
v -48 -36 0
v -48 -34 0
v -46 -34 0
v -48 -36 0
v -50 -36 0
v -50 -34 0
v -48 -34 0
v -40 -38 0
v -42 -38 0
v -42 -36 0
v -40 -36 0
v -42 -38 0
v -44 -38 0
v -44 -36 0
v -42 -36 0
v -44 -38 0
v -46 -38 0
v -46 -36 0
v -44 -36 0
v -46 -38 0
v -48 -38 0
v -48 -36 0
v -46 -36 0
v -48 -38 0
v -50 -38 0
v -50 -36 0
v -48 -36 0
v -40 -40 0
v -42 -40 0
v -42 -38 0
v -40 -38 0
v -42 -40 0
v -44 -40 0
v -44 -38 0
v -42 -38 0
v -44 -40 0
v -46 -40 0
v -46 -38 0
v -44 -38 0
v -40 -42 0
v -42 -42 0
v -42 -40 0
v -40 -40 0
v -42 -42 0
v -44 -42 0
v -44 -40 0
v -42 -40 0
v -44 -42 0
v -46 -42 0
v -46 -40 0
v -44 -40 0
v -40 -44 0
v -42 -44 0
v -42 -42 0
v -40 -42 0
v -42 -44 0
v -44 -44 0
v -44 -42 0
v -42 -42 0
v -44 -44 0
v -46 -44 0
v -46 -42 0
v -44 -42 0
v -42 -46 0
v -44 -46 0
v -44 -44 0
v -42 -44 0
v -42 -48 0
v -44 -48 0
v -44 -46 0
v -42 -46 0
v -44 -48 0
v -46 -48 0
v -46 -46 0
v -44 -46 0
v -46 -48 0
v -48 -48 0
v -48 -46 0
v -46 -46 0
v -42 -50 0
v -44 -50 0
v -44 -48 0
v -42 -48 0
v -44 -50 0
v -46 -50 0
v -46 -48 0
v -44 -48 0
v -46 -50 0
v -48 -50 0
v -48 -48 0
v -46 -48 0
v -48 -50 0
v -50 -50 0
v -50 -48 0
v -48 -48 0

# Texture cooridinates (Count = 76)
vt 0.9375 0.96875
vt 0.96875 0.96875
vt 0.96875 1
vt 0.9375 1
vt 1 0.96875
vt 1 1
vt 0.9375 0.9375
vt 0.96875 0.9375
vt 1 0.9375
vt 0.5 0.3125
vt 0.53125 0.3125
vt 0.53125 0.34375
vt 0.5 0.34375
vt 0.9375 0.90625
vt 0.96875 0.90625
vt 1 0.90625
vt 0.5 0.28125
vt 0.53125 0.28125
vt 0.53125 0.25
vt 0.5625 0.25
vt 0.5625 0.28125
vt 0.9375 0.875
vt 0.96875 0.875
vt 0.5 0.21875
vt 0.53125 0.21875
vt 0.5 0.25
vt 0.5625 0.21875
vt 0.9375 0.84375
vt 0.96875 0.84375
vt 0.5 0.1875
vt 0.53125 0.1875
vt 0.5625 0.1875
vt 0.3125 0.71875
vt 0.34375 0.71875
vt 0.34375 0.75
vt 0.3125 0.75
vt 1 0.875
vt 1 0.84375
vt 0.90625 0.09375
vt 0.9375 0.09375
vt 0.9375 0.125
vt 0.90625 0.125
vt 0.96875 0.09375
vt 0.96875 0.125
vt 1 0.09375
vt 1 0.125
vt 0.90625 0.0625
vt 0.9375 0.0625
vt 0.96875 0.0625
vt 1 0.0625
vt 0.90625 0.03125
vt 0.9375 0.03125
vt 0.96875 0.03125
vt 1 0.03125
vt 0.90625 0
vt 0.9375 0
vt 0.96875 0
vt 1 0
vt 0.59375 0.5
vt 0.625 0.5
vt 0.625 0.53125
vt 0.59375 0.53125
vt 0.53125 0.53125
vt 0.5625 0.53125
vt 0.5625 0.5625
vt 0.53125 0.5625
vt 0.5625 0.3125
vt 0.5625 0.34375
vt 0.59375 0.3125
vt 0.59375 0.34375
vt 0.59375 0.4375
vt 0.625 0.4375
vt 0.625 0.46875
vt 0.59375 0.46875
vt 0.59375 0.28125
vt 0.59375 0.5625

# Normal
vn 0 0 -1

# Mesh description
g map2_final_mesh_0007

# Faces
f 1/1/1 2/2/1 3/3/1 4/4/1
f 5/2/1 6/5/1 7/6/1 8/3/1
f 9/7/1 10/8/1 11/2/1 12/1/1
f 13/8/1 14/9/1 15/5/1 16/2/1
f 17/10/1 18/11/1 19/12/1 20/13/1
f 21/10/1 22/11/1 23/12/1 24/13/1
f 25/14/1 26/15/1 27/8/1 28/7/1
f 29/15/1 30/16/1 31/9/1 32/8/1
f 33/1/1 34/2/1 35/3/1 36/4/1
f 37/2/1 38/5/1 39/6/1 40/3/1
f 41/17/1 42/18/1 43/11/1 44/10/1
f 45/19/1 46/20/1 47/21/1 48/18/1
f 49/19/1 50/20/1 51/21/1 52/18/1
f 53/19/1 54/20/1 55/21/1 56/18/1
f 57/19/1 58/20/1 59/21/1 60/18/1
f 61/19/1 62/20/1 63/21/1 64/18/1
f 65/19/1 66/20/1 67/21/1 68/18/1
f 69/19/1 70/20/1 71/21/1 72/18/1
f 73/17/1 74/18/1 75/11/1 76/10/1
f 77/22/1 78/23/1 79/15/1 80/14/1
f 81/7/1 82/8/1 83/2/1 84/1/1
f 85/8/1 86/9/1 87/5/1 88/2/1
f 89/1/1 90/2/1 91/3/1 92/4/1
f 93/2/1 94/5/1 95/6/1 96/3/1
f 97/24/1 98/25/1 99/19/1 100/26/1
f 101/25/1 102/27/1 103/20/1 104/19/1
f 105/25/1 106/27/1 107/20/1 108/19/1
f 109/25/1 110/27/1 111/20/1 112/19/1
f 113/25/1 114/27/1 115/20/1 116/19/1
f 117/25/1 118/27/1 119/20/1 120/19/1
f 121/28/1 122/29/1 123/23/1 124/22/1
f 125/14/1 126/15/1 127/8/1 128/7/1
f 129/15/1 130/16/1 131/9/1 132/8/1
f 133/7/1 134/8/1 135/2/1 136/1/1
f 137/8/1 138/9/1 139/5/1 140/2/1
f 141/30/1 142/31/1 143/25/1 144/24/1
f 145/31/1 146/32/1 147/27/1 148/25/1
f 149/31/1 150/32/1 151/27/1 152/25/1
f 153/31/1 154/32/1 155/27/1 156/25/1
f 157/33/1 158/34/1 159/35/1 160/36/1
f 161/33/1 162/34/1 163/35/1 164/36/1
f 165/31/1 166/32/1 167/27/1 168/25/1
f 169/31/1 170/32/1 171/27/1 172/25/1
f 173/22/1 174/23/1 175/15/1 176/14/1
f 177/23/1 178/37/1 179/16/1 180/15/1
f 181/14/1 182/15/1 183/8/1 184/7/1
f 185/15/1 186/16/1 187/9/1 188/8/1
f 189/28/1 190/29/1 191/23/1 192/22/1
f 193/29/1 194/38/1 195/37/1 196/23/1
f 197/22/1 198/23/1 199/15/1 200/14/1
f 201/23/1 202/37/1 203/16/1 204/15/1
f 205/28/1 206/29/1 207/23/1 208/22/1
f 209/29/1 210/38/1 211/37/1 212/23/1
f 213/39/1 214/40/1 215/41/1 216/42/1
f 217/40/1 218/43/1 219/44/1 220/41/1
f 221/43/1 222/45/1 223/46/1 224/44/1
f 225/47/1 226/48/1 227/40/1 228/39/1
f 229/48/1 230/49/1 231/43/1 232/40/1
f 233/49/1 234/50/1 235/45/1 236/43/1
f 237/51/1 238/52/1 239/48/1 240/47/1
f 241/52/1 242/53/1 243/49/1 244/48/1
f 245/53/1 246/54/1 247/50/1 248/49/1
f 249/55/1 250/56/1 251/52/1 252/51/1
f 253/56/1 254/57/1 255/53/1 256/52/1
f 257/57/1 258/58/1 259/54/1 260/53/1
f 261/39/1 262/40/1 263/41/1 264/42/1
f 265/40/1 266/43/1 267/44/1 268/41/1
f 269/47/1 270/48/1 271/40/1 272/39/1
f 273/48/1 274/49/1 275/43/1 276/40/1
f 277/51/1 278/52/1 279/48/1 280/47/1
f 281/52/1 282/53/1 283/49/1 284/48/1
f 285/39/1 286/40/1 287/41/1 288/42/1
f 289/40/1 290/43/1 291/44/1 292/41/1
f 293/43/1 294/45/1 295/46/1 296/44/1
f 297/55/1 298/56/1 299/52/1 300/51/1
f 301/56/1 302/57/1 303/53/1 304/52/1
f 305/47/1 306/48/1 307/40/1 308/39/1
f 309/48/1 310/49/1 311/43/1 312/40/1
f 313/49/1 314/50/1 315/45/1 316/43/1
f 317/51/1 318/52/1 319/48/1 320/47/1
f 321/52/1 322/53/1 323/49/1 324/48/1
f 325/53/1 326/54/1 327/50/1 328/49/1
f 329/55/1 330/56/1 331/52/1 332/51/1
f 333/56/1 334/57/1 335/53/1 336/52/1
f 337/57/1 338/58/1 339/54/1 340/53/1
f 341/59/1 342/60/1 343/61/1 344/62/1
f 345/63/1 346/64/1 347/65/1 348/66/1
f 349/11/1 350/67/1 351/68/1 352/12/1
f 353/67/1 354/69/1 355/70/1 356/68/1
f 357/71/1 358/72/1 359/73/1 360/74/1
f 361/18/1 362/21/1 363/67/1 364/11/1
f 365/21/1 366/75/1 367/69/1 368/67/1
f 369/64/1 370/62/1 371/76/1 372/65/1

