# Tiled2Unity generated file. Do not modify by hand.
# Wavefront file for 'map2_final_mesh_0011.obj'

# Vertices (Count = 120)
v -28 -10 0
v -30 -10 0
v -30 -8 0
v -28 -8 0
v -30 -10 0
v -32 -10 0
v -32 -8 0
v -30 -8 0
v -32 -10 0
v -34 -10 0
v -34 -8 0
v -32 -8 0
v -34 -10 0
v -36 -10 0
v -36 -8 0
v -34 -8 0
v -28 -12 0
v -30 -12 0
v -30 -10 0
v -28 -10 0
v -30 -12 0
v -32 -12 0
v -32 -10 0
v -30 -10 0
v -32 -12 0
v -34 -12 0
v -34 -10 0
v -32 -10 0
v -34 -12 0
v -36 -12 0
v -36 -10 0
v -34 -10 0
v -28 -14 0
v -30 -14 0
v -30 -12 0
v -28 -12 0
v -30 -14 0
v -32 -14 0
v -32 -12 0
v -30 -12 0
v -32 -14 0
v -34 -14 0
v -34 -12 0
v -32 -12 0
v -34 -14 0
v -36 -14 0
v -36 -12 0
v -34 -12 0
v -44 -14 0
v -46 -14 0
v -46 -12 0
v -44 -12 0
v -46 -14 0
v -48 -14 0
v -48 -12 0
v -46 -12 0
v -28 -16 0
v -30 -16 0
v -30 -14 0
v -28 -14 0
v -30 -16 0
v -32 -16 0
v -32 -14 0
v -30 -14 0
v -32 -16 0
v -34 -16 0
v -34 -14 0
v -32 -14 0
v -34 -16 0
v -36 -16 0
v -36 -14 0
v -34 -14 0
v -44 -16 0
v -46 -16 0
v -46 -14 0
v -44 -14 0
v -46 -16 0
v -48 -16 0
v -48 -14 0
v -46 -14 0
v -28 -18 0
v -30 -18 0
v -30 -16 0
v -28 -16 0
v -30 -18 0
v -32 -18 0
v -32 -16 0
v -30 -16 0
v -32 -18 0
v -34 -18 0
v -34 -16 0
v -32 -16 0
v -34 -18 0
v -36 -18 0
v -36 -16 0
v -34 -16 0
v -44 -18 0
v -46 -18 0
v -46 -16 0
v -44 -16 0
v -46 -18 0
v -48 -18 0
v -48 -16 0
v -46 -16 0
v -44 -20 0
v -46 -20 0
v -46 -18 0
v -44 -18 0
v -46 -20 0
v -48 -20 0
v -48 -18 0
v -46 -18 0
v -44 -22 0
v -46 -22 0
v -46 -20 0
v -44 -20 0
v -46 -22 0
v -48 -22 0
v -48 -20 0
v -46 -20 0

# Texture cooridinates (Count = 18)
vt 0.9375 0.96875
vt 0.96875 0.96875
vt 0.96875 1
vt 0.9375 1
vt 1 0.96875
vt 1 1
vt 0.9375 0.9375
vt 0.96875 0.9375
vt 1 0.9375
vt 0.9375 0.90625
vt 0.96875 0.90625
vt 1 0.90625
vt 0.9375 0.875
vt 0.96875 0.875
vt 1 0.875
vt 0.9375 0.84375
vt 0.96875 0.84375
vt 1 0.84375

# Normal
vn 0 0 -1

# Mesh description
g map2_final_mesh_0011

# Faces
f 1/1/1 2/2/1 3/3/1 4/4/1
f 5/2/1 6/5/1 7/6/1 8/3/1
f 9/1/1 10/2/1 11/3/1 12/4/1
f 13/2/1 14/5/1 15/6/1 16/3/1
f 17/7/1 18/8/1 19/2/1 20/1/1
f 21/8/1 22/9/1 23/5/1 24/2/1
f 25/7/1 26/8/1 27/2/1 28/1/1
f 29/8/1 30/9/1 31/5/1 32/2/1
f 33/10/1 34/11/1 35/8/1 36/7/1
f 37/11/1 38/12/1 39/9/1 40/8/1
f 41/10/1 42/11/1 43/8/1 44/7/1
f 45/11/1 46/12/1 47/9/1 48/8/1
f 49/1/1 50/2/1 51/3/1 52/4/1
f 53/2/1 54/5/1 55/6/1 56/3/1
f 57/13/1 58/14/1 59/11/1 60/10/1
f 61/14/1 62/15/1 63/12/1 64/11/1
f 65/13/1 66/14/1 67/11/1 68/10/1
f 69/14/1 70/15/1 71/12/1 72/11/1
f 73/7/1 74/8/1 75/2/1 76/1/1
f 77/8/1 78/9/1 79/5/1 80/2/1
f 81/16/1 82/17/1 83/14/1 84/13/1
f 85/17/1 86/18/1 87/15/1 88/14/1
f 89/16/1 90/17/1 91/14/1 92/13/1
f 93/17/1 94/18/1 95/15/1 96/14/1
f 97/10/1 98/11/1 99/8/1 100/7/1
f 101/11/1 102/12/1 103/9/1 104/8/1
f 105/13/1 106/14/1 107/11/1 108/10/1
f 109/14/1 110/15/1 111/12/1 112/11/1
f 113/16/1 114/17/1 115/14/1 116/13/1
f 117/17/1 118/18/1 119/15/1 120/14/1

