# Tiled2Unity generated file. Do not modify by hand.
# Wavefront file for 'map2_final_mesh_0003.obj'

# Vertices (Count = 528)
v -38 -12 0
v -40 -12 0
v -40 -10 0
v -38 -10 0
v -40 -12 0
v -42 -12 0
v -42 -10 0
v -40 -10 0
v -10 -14 0
v -12 -14 0
v -12 -12 0
v -10 -12 0
v -12 -14 0
v -14 -14 0
v -14 -12 0
v -12 -12 0
v -38 -14 0
v -40 -14 0
v -40 -12 0
v -38 -12 0
v -40 -14 0
v -42 -14 0
v -42 -12 0
v -40 -12 0
v -10 -16 0
v -12 -16 0
v -12 -14 0
v -10 -14 0
v -12 -16 0
v -14 -16 0
v -14 -14 0
v -12 -14 0
v -14 -16 0
v -16 -16 0
v -16 -14 0
v -14 -14 0
v -16 -16 0
v -18 -16 0
v -18 -14 0
v -16 -14 0
v -18 -16 0
v -20 -16 0
v -20 -14 0
v -18 -14 0
v -20 -16 0
v -22 -16 0
v -22 -14 0
v -20 -14 0
v -22 -16 0
v -24 -16 0
v -24 -14 0
v -22 -14 0
v -38 -16 0
v -40 -16 0
v -40 -14 0
v -38 -14 0
v -40 -16 0
v -42 -16 0
v -42 -14 0
v -40 -14 0
v -10 -18 0
v -12 -18 0
v -12 -16 0
v -10 -16 0
v -12 -18 0
v -14 -18 0
v -14 -16 0
v -12 -16 0
v -14 -18 0
v -16 -18 0
v -16 -16 0
v -14 -16 0
v -16 -18 0
v -18 -18 0
v -18 -16 0
v -16 -16 0
v -18 -18 0
v -20 -18 0
v -20 -16 0
v -18 -16 0
v -20 -18 0
v -22 -18 0
v -22 -16 0
v -20 -16 0
v -22 -18 0
v -24 -18 0
v -24 -16 0
v -22 -16 0
v -36 -18 0
v -38 -18 0
v -38 -16 0
v -36 -16 0
v -38 -18 0
v -40 -18 0
v -40 -16 0
v -38 -16 0
v -40 -18 0
v -42 -18 0
v -42 -16 0
v -40 -16 0
v -20 -20 0
v -22 -20 0
v -22 -18 0
v -20 -18 0
v -22 -20 0
v -24 -20 0
v -24 -18 0
v -22 -18 0
v -36 -20 0
v -38 -20 0
v -38 -18 0
v -36 -18 0
v -38 -20 0
v -40 -20 0
v -40 -18 0
v -38 -18 0
v -40 -20 0
v -42 -20 0
v -42 -18 0
v -40 -18 0
v -2 -22 0
v -4 -22 0
v -4 -20 0
v -2 -20 0
v -4 -22 0
v -6 -22 0
v -6 -20 0
v -4 -20 0
v -6 -22 0
v -8 -22 0
v -8 -20 0
v -6 -20 0
v -8 -22 0
v -10 -22 0
v -10 -20 0
v -8 -20 0
v -10 -22 0
v -12 -22 0
v -12 -20 0
v -10 -20 0
v -12 -22 0
v -14 -22 0
v -14 -20 0
v -12 -20 0
v -14 -22 0
v -16 -22 0
v -16 -20 0
v -14 -20 0
v -16 -22 0
v -18 -22 0
v -18 -20 0
v -16 -20 0
v -18 -22 0
v -20 -22 0
v -20 -20 0
v -18 -20 0
v -20 -22 0
v -22 -22 0
v -22 -20 0
v -20 -20 0
v -22 -22 0
v -24 -22 0
v -24 -20 0
v -22 -20 0
v -24 -22 0
v -26 -22 0
v -26 -20 0
v -24 -20 0
v -26 -22 0
v -28 -22 0
v -28 -20 0
v -26 -20 0
v -28 -22 0
v -30 -22 0
v -30 -20 0
v -28 -20 0
v -30 -22 0
v -32 -22 0
v -32 -20 0
v -30 -20 0
v -32 -22 0
v -34 -22 0
v -34 -20 0
v -32 -20 0
v -34 -22 0
v -36 -22 0
v -36 -20 0
v -34 -20 0
v -36 -22 0
v -38 -22 0
v -38 -20 0
v -36 -20 0
v -38 -22 0
v -40 -22 0
v -40 -20 0
v -38 -20 0
v -2 -24 0
v -4 -24 0
v -4 -22 0
v -2 -22 0
v -4 -24 0
v -6 -24 0
v -6 -22 0
v -4 -22 0
v -6 -24 0
v -8 -24 0
v -8 -22 0
v -6 -22 0
v -8 -24 0
v -10 -24 0
v -10 -22 0
v -8 -22 0
v -10 -24 0
v -12 -24 0
v -12 -22 0
v -10 -22 0
v -12 -24 0
v -14 -24 0
v -14 -22 0
v -12 -22 0
v -14 -24 0
v -16 -24 0
v -16 -22 0
v -14 -22 0
v -16 -24 0
v -18 -24 0
v -18 -22 0
v -16 -22 0
v -18 -24 0
v -20 -24 0
v -20 -22 0
v -18 -22 0
v -20 -24 0
v -22 -24 0
v -22 -22 0
v -20 -22 0
v -22 -24 0
v -24 -24 0
v -24 -22 0
v -22 -22 0
v -24 -24 0
v -26 -24 0
v -26 -22 0
v -24 -22 0
v -26 -24 0
v -28 -24 0
v -28 -22 0
v -26 -22 0
v -28 -24 0
v -30 -24 0
v -30 -22 0
v -28 -22 0
v -30 -24 0
v -32 -24 0
v -32 -22 0
v -30 -22 0
v -32 -24 0
v -34 -24 0
v -34 -22 0
v -32 -22 0
v -34 -24 0
v -36 -24 0
v -36 -22 0
v -34 -22 0
v -36 -24 0
v -38 -24 0
v -38 -22 0
v -36 -22 0
v -38 -24 0
v -40 -24 0
v -40 -22 0
v -38 -22 0
v -36 -26 0
v -38 -26 0
v -38 -24 0
v -36 -24 0
v -38 -26 0
v -40 -26 0
v -40 -24 0
v -38 -24 0
v -36 -28 0
v -38 -28 0
v -38 -26 0
v -36 -26 0
v -38 -28 0
v -40 -28 0
v -40 -26 0
v -38 -26 0
v -36 -30 0
v -38 -30 0
v -38 -28 0
v -36 -28 0
v -38 -30 0
v -40 -30 0
v -40 -28 0
v -38 -28 0
v -36 -32 0
v -38 -32 0
v -38 -30 0
v -36 -30 0
v -38 -32 0
v -40 -32 0
v -40 -30 0
v -38 -30 0
v -26 -34 0
v -28 -34 0
v -28 -32 0
v -26 -32 0
v -28 -34 0
v -30 -34 0
v -30 -32 0
v -28 -32 0
v -30 -34 0
v -32 -34 0
v -32 -32 0
v -30 -32 0
v -32 -34 0
v -34 -34 0
v -34 -32 0
v -32 -32 0
v -34 -34 0
v -36 -34 0
v -36 -32 0
v -34 -32 0
v -36 -34 0
v -38 -34 0
v -38 -32 0
v -36 -32 0
v -38 -34 0
v -40 -34 0
v -40 -32 0
v -38 -32 0
v -40 -34 0
v -42 -34 0
v -42 -32 0
v -40 -32 0
v -42 -34 0
v -44 -34 0
v -44 -32 0
v -42 -32 0
v -44 -34 0
v -46 -34 0
v -46 -32 0
v -44 -32 0
v -46 -34 0
v -48 -34 0
v -48 -32 0
v -46 -32 0
v -6 -36 0
v -8 -36 0
v -8 -34 0
v -6 -34 0
v -8 -36 0
v -10 -36 0
v -10 -34 0
v -8 -34 0
v -10 -36 0
v -12 -36 0
v -12 -34 0
v -10 -34 0
v -12 -36 0
v -14 -36 0
v -14 -34 0
v -12 -34 0
v -14 -36 0
v -16 -36 0
v -16 -34 0
v -14 -34 0
v -16 -36 0
v -18 -36 0
v -18 -34 0
v -16 -34 0
v -18 -36 0
v -20 -36 0
v -20 -34 0
v -18 -34 0
v -20 -36 0
v -22 -36 0
v -22 -34 0
v -20 -34 0
v -22 -36 0
v -24 -36 0
v -24 -34 0
v -22 -34 0
v -24 -36 0
v -26 -36 0
v -26 -34 0
v -24 -34 0
v -26 -36 0
v -28 -36 0
v -28 -34 0
v -26 -34 0
v -28 -36 0
v -30 -36 0
v -30 -34 0
v -28 -34 0
v -30 -36 0
v -32 -36 0
v -32 -34 0
v -30 -34 0
v -32 -36 0
v -34 -36 0
v -34 -34 0
v -32 -34 0
v -34 -36 0
v -36 -36 0
v -36 -34 0
v -34 -34 0
v -36 -36 0
v -38 -36 0
v -38 -34 0
v -36 -34 0
v -38 -36 0
v -40 -36 0
v -40 -34 0
v -38 -34 0
v -40 -36 0
v -42 -36 0
v -42 -34 0
v -40 -34 0
v -42 -36 0
v -44 -36 0
v -44 -34 0
v -42 -34 0
v -44 -36 0
v -46 -36 0
v -46 -34 0
v -44 -34 0
v -46 -36 0
v -48 -36 0
v -48 -34 0
v -46 -34 0
v -6 -38 0
v -8 -38 0
v -8 -36 0
v -6 -36 0
v -8 -38 0
v -10 -38 0
v -10 -36 0
v -8 -36 0
v -10 -38 0
v -12 -38 0
v -12 -36 0
v -10 -36 0
v -16 -38 0
v -18 -38 0
v -18 -36 0
v -16 -36 0
v -18 -38 0
v -20 -38 0
v -20 -36 0
v -18 -36 0
v -20 -38 0
v -22 -38 0
v -22 -36 0
v -20 -36 0
v -22 -38 0
v -24 -38 0
v -24 -36 0
v -22 -36 0
v -24 -38 0
v -26 -38 0
v -26 -36 0
v -24 -36 0
v -26 -38 0
v -28 -38 0
v -28 -36 0
v -26 -36 0
v -28 -38 0
v -30 -38 0
v -30 -36 0
v -28 -36 0
v -44 -38 0
v -46 -38 0
v -46 -36 0
v -44 -36 0
v -46 -38 0
v -48 -38 0
v -48 -36 0
v -46 -36 0
v -44 -40 0
v -46 -40 0
v -46 -38 0
v -44 -38 0
v -46 -40 0
v -48 -40 0
v -48 -38 0
v -46 -38 0
v -44 -42 0
v -46 -42 0
v -46 -40 0
v -44 -40 0
v -46 -42 0
v -48 -42 0
v -48 -40 0
v -46 -40 0
v -44 -44 0
v -46 -44 0
v -46 -42 0
v -44 -42 0
v -46 -44 0
v -48 -44 0
v -48 -42 0
v -46 -42 0
v -44 -46 0
v -46 -46 0
v -46 -44 0
v -44 -44 0
v -46 -46 0
v -48 -46 0
v -48 -44 0
v -46 -44 0
v -44 -48 0
v -46 -48 0
v -46 -46 0
v -44 -46 0
v -46 -48 0
v -48 -48 0
v -48 -46 0
v -46 -46 0
v -44 -50 0
v -46 -50 0
v -46 -48 0
v -44 -48 0
v -46 -50 0
v -48 -50 0
v -48 -48 0
v -46 -48 0

# Texture cooridinates (Count = 34)
vt 0.46875 0.90625
vt 0.5 0.90625
vt 0.5 0.9375
vt 0.46875 0.9375
vt 0.53125 0.90625
vt 0.5625 0.90625
vt 0.5625 0.9375
vt 0.53125 0.9375
vt 0.46875 0.875
vt 0.5 0.875
vt 0.53125 0.875
vt 0.5625 0.875
vt 0.53125 0.96875
vt 0.5 0.96875
vt 0.46875 0.84375
vt 0.5 0.84375
vt 0.53125 0.84375
vt 0.5625 0.96875
vt 0.5625 1
vt 0.53125 1
vt 0.5 1
vt 0.5625 0.84375
vt 0.40625 0.46875
vt 0.4375 0.46875
vt 0.4375 0.5
vt 0.40625 0.5
vt 0.46875 0.46875
vt 0.46875 0.5
vt 0.5 0.46875
vt 0.5 0.5
vt 0.40625 0.4375
vt 0.4375 0.4375
vt 0.46875 0.4375
vt 0.5 0.4375

# Normal
vn 0 0 -1

# Mesh description
g map2_final_mesh_0003

# Faces
f 1/1/1 2/2/1 3/3/1 4/4/1
f 5/5/1 6/6/1 7/7/1 8/8/1
f 9/9/1 10/10/1 11/2/1 12/1/1
f 13/11/1 14/12/1 15/6/1 16/5/1
f 17/9/1 18/10/1 19/2/1 20/1/1
f 21/11/1 22/12/1 23/6/1 24/5/1
f 25/9/1 26/10/1 27/2/1 28/1/1
f 29/3/1 30/8/1 31/13/1 32/14/1
f 33/2/1 34/5/1 35/8/1 36/3/1
f 37/2/1 38/5/1 39/8/1 40/3/1
f 41/2/1 42/5/1 43/8/1 44/3/1
f 45/2/1 46/5/1 47/8/1 48/3/1
f 49/5/1 50/6/1 51/7/1 52/8/1
f 53/9/1 54/10/1 55/2/1 56/1/1
f 57/11/1 58/12/1 59/6/1 60/5/1
f 61/15/1 62/16/1 63/10/1 64/9/1
f 65/16/1 66/17/1 67/11/1 68/10/1
f 69/16/1 70/17/1 71/11/1 72/10/1
f 73/16/1 74/17/1 75/11/1 76/10/1
f 77/16/1 78/17/1 79/11/1 80/10/1
f 81/13/1 82/18/1 83/19/1 84/20/1
f 85/11/1 86/12/1 87/6/1 88/5/1
f 89/1/1 90/2/1 91/3/1 92/4/1
f 93/8/1 94/7/1 95/18/1 96/13/1
f 97/11/1 98/12/1 99/6/1 100/5/1
f 101/9/1 102/10/1 103/2/1 104/1/1
f 105/11/1 106/12/1 107/6/1 108/5/1
f 109/9/1 110/10/1 111/2/1 112/1/1
f 113/14/1 114/13/1 115/20/1 116/21/1
f 117/17/1 118/22/1 119/12/1 120/11/1
f 121/1/1 122/2/1 123/3/1 124/4/1
f 125/2/1 126/5/1 127/8/1 128/3/1
f 129/2/1 130/5/1 131/8/1 132/3/1
f 133/2/1 134/5/1 135/8/1 136/3/1
f 137/2/1 138/5/1 139/8/1 140/3/1
f 141/2/1 142/5/1 143/8/1 144/3/1
f 145/2/1 146/5/1 147/8/1 148/3/1
f 149/2/1 150/5/1 151/8/1 152/3/1
f 153/2/1 154/5/1 155/8/1 156/3/1
f 157/8/1 158/7/1 159/18/1 160/13/1
f 161/3/1 162/8/1 163/13/1 164/14/1
f 165/2/1 166/5/1 167/8/1 168/3/1
f 169/2/1 170/5/1 171/8/1 172/3/1
f 173/2/1 174/5/1 175/8/1 176/3/1
f 177/2/1 178/5/1 179/8/1 180/3/1
f 181/2/1 182/5/1 183/8/1 184/3/1
f 185/2/1 186/5/1 187/8/1 188/3/1
f 189/8/1 190/7/1 191/18/1 192/13/1
f 193/11/1 194/12/1 195/6/1 196/5/1
f 197/15/1 198/16/1 199/10/1 200/9/1
f 201/16/1 202/17/1 203/11/1 204/10/1
f 205/16/1 206/17/1 207/11/1 208/10/1
f 209/16/1 210/17/1 211/11/1 212/10/1
f 213/16/1 214/17/1 215/11/1 216/10/1
f 217/16/1 218/17/1 219/11/1 220/10/1
f 221/16/1 222/17/1 223/11/1 224/10/1
f 225/16/1 226/17/1 227/11/1 228/10/1
f 229/16/1 230/17/1 231/11/1 232/10/1
f 233/16/1 234/17/1 235/11/1 236/10/1
f 237/16/1 238/17/1 239/11/1 240/10/1
f 241/16/1 242/17/1 243/11/1 244/10/1
f 245/16/1 246/17/1 247/11/1 248/10/1
f 249/16/1 250/17/1 251/11/1 252/10/1
f 253/16/1 254/17/1 255/11/1 256/10/1
f 257/16/1 258/17/1 259/11/1 260/10/1
f 261/16/1 262/17/1 263/11/1 264/10/1
f 265/13/1 266/18/1 267/19/1 268/20/1
f 269/11/1 270/12/1 271/6/1 272/5/1
f 273/9/1 274/10/1 275/2/1 276/1/1
f 277/11/1 278/12/1 279/6/1 280/5/1
f 281/9/1 282/10/1 283/2/1 284/1/1
f 285/11/1 286/12/1 287/6/1 288/5/1
f 289/9/1 290/10/1 291/2/1 292/1/1
f 293/11/1 294/12/1 295/6/1 296/5/1
f 297/9/1 298/10/1 299/2/1 300/1/1
f 301/11/1 302/12/1 303/6/1 304/5/1
f 305/1/1 306/2/1 307/3/1 308/4/1
f 309/2/1 310/5/1 311/8/1 312/3/1
f 313/2/1 314/5/1 315/8/1 316/3/1
f 317/2/1 318/5/1 319/8/1 320/3/1
f 321/2/1 322/5/1 323/8/1 324/3/1
f 325/8/1 326/7/1 327/18/1 328/13/1
f 329/3/1 330/8/1 331/13/1 332/14/1
f 333/2/1 334/5/1 335/8/1 336/3/1
f 337/2/1 338/5/1 339/8/1 340/3/1
f 341/2/1 342/5/1 343/8/1 344/3/1
f 345/5/1 346/6/1 347/7/1 348/8/1
f 349/1/1 350/2/1 351/3/1 352/4/1
f 353/5/1 354/6/1 355/7/1 356/8/1
f 357/23/1 358/24/1 359/25/1 360/26/1
f 361/24/1 362/27/1 363/28/1 364/25/1
f 365/24/1 366/27/1 367/28/1 368/25/1
f 369/24/1 370/27/1 371/28/1 372/25/1
f 373/27/1 374/29/1 375/30/1 376/28/1
f 377/1/1 378/2/1 379/3/1 380/4/1
f 381/2/1 382/5/1 383/8/1 384/3/1
f 385/2/1 386/5/1 387/8/1 388/3/1
f 389/8/1 390/7/1 391/18/1 392/13/1
f 393/14/1 394/13/1 395/20/1 396/21/1
f 397/16/1 398/17/1 399/11/1 400/10/1
f 401/16/1 402/17/1 403/11/1 404/10/1
f 405/16/1 406/17/1 407/11/1 408/10/1
f 409/16/1 410/17/1 411/11/1 412/10/1
f 413/16/1 414/17/1 415/11/1 416/10/1
f 417/16/1 418/17/1 419/11/1 420/10/1
f 421/16/1 422/17/1 423/11/1 424/10/1
f 425/13/1 426/18/1 427/19/1 428/20/1
f 429/11/1 430/12/1 431/6/1 432/5/1
f 433/15/1 434/16/1 435/10/1 436/9/1
f 437/17/1 438/22/1 439/12/1 440/11/1
f 441/31/1 442/32/1 443/24/1 444/23/1
f 445/32/1 446/33/1 447/27/1 448/24/1
f 449/33/1 450/34/1 451/29/1 452/27/1
f 453/15/1 454/16/1 455/10/1 456/9/1
f 457/16/1 458/17/1 459/11/1 460/10/1
f 461/16/1 462/17/1 463/11/1 464/10/1
f 465/16/1 466/17/1 467/11/1 468/10/1
f 469/17/1 470/22/1 471/12/1 472/11/1
f 473/9/1 474/10/1 475/2/1 476/1/1
f 477/11/1 478/12/1 479/6/1 480/5/1
f 481/9/1 482/10/1 483/2/1 484/1/1
f 485/11/1 486/12/1 487/6/1 488/5/1
f 489/9/1 490/10/1 491/2/1 492/1/1
f 493/11/1 494/12/1 495/6/1 496/5/1
f 497/9/1 498/10/1 499/2/1 500/1/1
f 501/11/1 502/12/1 503/6/1 504/5/1
f 505/9/1 506/10/1 507/2/1 508/1/1
f 509/11/1 510/12/1 511/6/1 512/5/1
f 513/9/1 514/10/1 515/2/1 516/1/1
f 517/11/1 518/12/1 519/6/1 520/5/1
f 521/9/1 522/10/1 523/2/1 524/1/1
f 525/11/1 526/12/1 527/6/1 528/5/1

